<?xml version="1.0" encoding="utf-8"?>
<!-- Generator: Adobe Illustrator 25.2.1, SVG Export Plug-In . SVG Version: 6.00 Build 0)  -->
<svg version="1.0" id="Ebene_1" xmlns="http://www.w3.org/2000/svg" xmlns:xlink="http://www.w3.org/1999/xlink" x="0px" y="0px"
	 viewBox="0 0 4938 1449" style="enable-background:new 0 0 4938 1449;" xml:space="preserve">
<style type="text/css">
	.st0{fill:#FFFFFF;}
	.st1{fill:#0D2C99;}
	.st2{fill-rule:evenodd;clip-rule:evenodd;fill:#FFFFFF;}
</style>
<path class="st0" d="M1164,1449c-157,0-285-128-285-285s128-285,285-285s285,128,285,285S1321,1449,1164,1449z"/>
<path class="st0" d="M1924,1139.5V314.5h215.2v824.9H1924z"/>
<path class="st0" d="M2890.8,314.5h217.6l-375.5,824.9h-170.8l-375.5-824.9h223.4l239.8,557L2890.8,314.5z"/>
<path class="st0" d="M3701.4,1139.5l-73.7-170.8h-365l-73.7,170.8h-216.4l384.8-824.9h170.8l386,824.9H3701.4z M3331.7,807.2h226.9
	l-113.5-264.4L3331.7,807.2z"/>
<path class="st0" d="M4333.2,1150c-84.2,0-157.5-17.2-219.9-51.5c-61.6-35.1-109.2-84.2-142.7-147.4c-33.5-64-50.3-138.9-50.3-224.7
	s16.8-160.3,50.3-223.5c33.5-64,81.1-113.1,142.7-147.4c62.4-34.3,135.7-51.5,219.9-51.5c84.2,0,157.1,17.2,218.7,51.5
	c62.4,34.3,110,83.5,142.7,147.4c33.5,63.2,50.3,137.7,50.3,223.5s-16.8,160.7-50.3,224.7c-33.5,63.2-81.5,112.3-143.9,147.4
	C4489.2,1132.8,4416.7,1150,4333.2,1150z M4333.2,985c62.4,0,111.1-21.8,146.2-65.5c35.1-44.5,52.6-108.8,52.6-193.1
	s-17.9-148.2-53.8-191.9c-35.1-43.7-83.4-65.5-145-65.5c-62.4,0-111.1,21.8-146.2,65.5c-35.1,42.9-52.6,106.9-52.6,191.9
	s17.5,149.4,52.6,193.1C4222.1,963.2,4270.9,985,4333.2,985z"/>
<path class="st1" d="M1095.1,1156.8l61.3,82.2h-27.7l-47.2-64.8l-47.2,64.8h-27.7l61.6-82.4l-59.1-79h27.7l44.9,61.6l44.6-61.6h27.5
	L1095.1,1156.8z M1238,1240.8c-21.5,0-37.8-5.6-49-16.7c-11.1-11.1-16.7-27.5-16.7-49.2v-97.3h23.3v98.9c0,14.8,3.5,26,10.5,33.7
	c7.2,7.6,17.8,11.4,31.8,11.4c13.9,0,24.4-3.8,31.6-11.4s10.8-18.8,10.8-33.7v-98.9h23.3v97.3c0,21.5-5.7,37.9-16.9,49.2
	C1275.7,1235.3,1259.4,1240.8,1238,1240.8z"/>
<path class="st2" d="M770.5,767.5c-0.3,0-35.4-4.5-39.5-4.7c-0.4,0-0.9,0-1.5-0.1c-3.2-0.1-8.7-0.3-12.6-0.6c-2.8-0.2-5.9-2.5-6-5.3
	c-0.1-1.4-0.1-3-0.1-4.7c0-1.4,0-2.9-0.1-4.3c0-6.1,0.7-16,1-18.3c0-0.1,0.1-0.3,0.2-0.4c0.2-0.4,0.7-0.5,1.1-0.5h7.8
	c1.2,0,1.3,3,1.1,4.9c0,0.1,0,0.2,0,0.4c0,1.6-0.4,14-0.4,15.7c0,1.8,3.4,3.2,7.7,3.1c4.3-0.2,41.3-2.3,42-2.3c0,0,0,0,0,0
	c0.7,0,77.4-3.4,85.5-3.8c8.1-0.4,9.3-12.2,9.2-21.4c-0.1-5.7-1.3-11.3-2.2-14.7c-0.5-2-2.4-3.4-4.5-3.4l-9.3-0.2
	c-1.4,0-2.5-1.3-2.4-2.7c0.1-1.3,1.2-2.4,2.6-2.3l23.1,1c2.3,0.1,4.2,1.8,5.3,3.9c0.8,1.5,2.1,2.8,3.8,2.8c1.1,0,1.9-0.5,2.5-1.2
	c0.1-0.1,0.2-0.3,0.3-0.4c1.7-2,3.6-4.3,6.2-4.2c2.7,0.1,4.8,2.3,4.7,5c-0.1,4.4-0.2,10.7-0.3,13.9c0,5.4,2.3,10.4,5.7,10.6
	c1.4,0.1,2.4-0.5,3.1-1.4c1.7-2,3.7-4.1,6.3-4l7.8,0.3c2.7,0.1,4.7,2.4,5.6,4.9c0.7,1.8,1.9,3.4,4,3.4c2.2,0.2,3.5-1.4,4.4-3.2
	c1.1-2.4,3.3-4.5,5.9-4.4l50.6,1.8c1.7,0.1,3,1.3,4.3,2.5c0.7,0.6,1.4,1.3,2.1,1.8c0.4,0.2,0.8,0.4,1.4,0.4c1,0,1.9-0.5,2.5-1.1
	c1.6-1.5,3.4-3,5.6-3l20.2,0.6c1.5,0,2.9-0.6,3.9-1.7l0.4-0.4c1.9-2.2,5.4-2.3,7.6-0.3c3.3,2.8,8,6.2,11.5,6.1
	c5.9,0,15.6-8.1,19.4-16.6c1.7-3.7,2.6-7,3.1-9.5c0.6-2.7,2.8-4.9,5.6-4.9c23-0.1,119-0.3,128.3-0.3c10.6-0.2,11.7-27.5,11-25.7
	c-0.4,1.1-1.8,4.6-2.8,7.4c-0.8,2.1-2.9,3.4-5.1,3.2l-144.2-11.7c-1.6-0.1-3-1-4.1-2.2c-2.2-2.3-6.6-6-13.3-6.5
	c-6.4-0.5-10.9,2.3-13.3,4.5c-1.4,1.2-3.3,2-5.2,1.7l-122.5-19.8c-1.6-0.3-2.9-1.2-3.8-2.5c-2.7-3.8-9.6-11.3-21.5-11.6
	c-7-0.3-10.9,1.5-13.1,3.3c-2,1.7-4.7,3.3-7.3,2.9c-127.1-22.6-139.8-36-141-38c-0.1-0.2-0.1-0.3-0.2-0.5
	c-0.2-2.3-1.8-18.4-1.8-41.8c0-94.1-39.7-147.9-55.7-147.9c-0.1,0-0.1,0-0.2,0c-0.1,0-0.1,0-0.2,0c-16,0-55.7,53.8-55.7,147.9
	c0,23.4-1.5,39.5-1.8,41.8c0,0.2,0,0.4-0.2,0.5c-1.2,2-13.9,15.4-141,38c-2.6,0.5-5.3-1.2-7.3-2.9c-2.2-1.8-6.2-3.6-13.1-3.3
	c-11.8,0.3-18.7,7.8-21.5,11.6c-0.9,1.3-2.3,2.2-3.8,2.5l-122.5,19.8c-1.9,0.3-3.7-0.5-5.2-1.7c-2.4-2.1-6.9-4.9-13.3-4.5
	c-6.8,0.5-11.2,4.2-13.3,6.5c-1.1,1.2-2.5,2-4.1,2.2l-144.2,11.7c-2.2,0.2-4.3-1.1-5.1-3.2c-1-2.8-2.4-6.4-2.8-7.4
	c-0.7-1.8,0.4,25.5,11,25.7c9.3,0,105.2,0.3,128.3,0.3c2.8,0,5,2.3,5.6,4.9c0.5,2.5,1.4,5.7,3.1,9.5c3.8,8.5,13.5,16.6,19.4,16.6
	c3.5,0.1,8.2-3.3,11.5-6.1c2.2-1.9,5.7-1.9,7.6,0.3l0.4,0.4c1,1.1,2.4,1.7,3.9,1.7l20.2-0.6c2.2-0.1,4,1.5,5.6,3
	c0.7,0.6,1.5,1.1,2.5,1.1c0.6,0,1-0.2,1.4-0.4c0.7-0.5,1.4-1.1,2.1-1.8c1.3-1.2,2.6-2.4,4.3-2.5l50.6-1.8c2.7-0.1,4.8,2,5.9,4.4
	c0.8,1.8,2.2,3.3,4.4,3.2c2.2,0,3.4-1.6,4-3.4c0.9-2.5,2.9-4.8,5.6-4.9l7.8-0.3c2.6-0.1,4.6,2,6.3,4c0.7,0.8,1.7,1.4,3.1,1.4
	c3.4-0.2,5.7-5.2,5.7-10.6c-0.1-3.2-0.2-9.5-0.3-13.9c0-2.7,2.1-4.9,4.7-5c2.6-0.1,4.5,2.2,6.2,4.2c0.1,0.1,0.2,0.3,0.3,0.4
	c0.6,0.7,1.4,1.2,2.5,1.2c1.8,0,3-1.3,3.8-2.8c1.1-2,3-3.8,5.3-3.9l23.1-1c1.4-0.1,2.5,1,2.6,2.3c0.1,1.4-1,2.6-2.4,2.7l-9.3,0.2
	c-2.1,0-3.9,1.4-4.5,3.4c-0.9,3.4-2.1,9-2.2,14.7c-0.2,9.2,1.1,21,9.2,21.4c8,0.4,84.8,3.7,85.5,3.8c0,0,0,0,0,0
	c0.7,0,37.7,2.2,42,2.3c4.3,0.2,7.7-1.3,7.7-3.1c0-1.7-0.3-14-0.4-15.7c0-0.1,0-0.2,0-0.2c0,0,0-0.1,0-0.1c-0.2-1.8-0.1-4.9,1.1-4.9
	h7.8c0.4,0,0.9,0.1,1.1,0.5c0.1,0.1,0.1,0.3,0.2,0.4c0.4,2.3,1,12.2,1,18.3c0,1.4-0.1,2.9-0.1,4.3c0,1.7,0,3.3-0.1,4.7
	c-0.1,2.8-3.3,5.1-6,5.3c-3.8,0.2-9,0.5-12.2,0.6c-0.8,0-1.4,0.1-1.9,0.1c-4.1,0.2-39.2,4.6-39.5,4.7c0,0,0,0,0,0
	c-0.3,0-75.2,9.2-77.2,9.5c-2,0.4-1.8,3.8,0,3.8c0.3,0,2,0.1,4.7,0.3c13.8,0.8,54.9,3.4,81.5,2.6c27.3-0.9,60.8-2.1,70.1-2.4
	c1.6-0.1,3,0.6,4.1,1.8c3.9,4.4,13.9,15.4,22.1,18.4c-0.7,0.5-1,0.8,0.1,0.8h3.8c0,0,0,0,0.1,0h4.2c1,0,0.8-0.3,0.1-0.8
	c8.2-3,18.3-13.9,22.1-18.4c1-1.2,2.5-1.9,4.1-1.8c9.3,0.3,42.8,1.5,70.1,2.4c26.6,0.8,67.7-1.8,81.5-2.6c2.7-0.2,4.4-0.3,4.7-0.3
	c1.8,0,2-3.4,0-3.8C845.8,776.6,770.8,767.5,770.5,767.5L770.5,767.5z"/>
<path class="st0" d="M663,0C298.5,0,3,295.5,3,660s295.5,660,660,660c53.4,0,105.3-6.3,155-18.3c-6.1-16.1-11.2-32.8-15-49.9
	c-45,10.6-91.8,16.2-140,16.2c-335.8,0-608-272.2-608-608S327.2,52,663,52s608,272.2,608,608c0,51.5-6.4,101.6-18.5,149.4
	c17,4.1,33.6,9.4,49.6,15.8C1315.8,772.4,1323,717,1323,660C1323,295.5,1027.5,0,663,0z"/>
</svg>
